<?xml version="1.0" ?><svg id="레이어_1" style="enable-background:new 0 0 40 40;" version="1.1" viewBox="0 0 40 40" xml:space="preserve" xmlns="http://www.w3.org/2000/svg" xmlns:xlink="http://www.w3.org/1999/xlink"><path d="M38,37.37c0-0.16,0-0.32,0-0.47c0-0.43,0-0.87,0-1.3c0-0.65,0-1.3,0-1.95c0-0.8,0-1.61,0-2.41c0-0.9,0-1.8,0-2.7  c0-0.94,0-1.87,0-2.81c0-0.91,0-1.82,0-2.73c0-0.83,0-1.65,0-2.48c0-0.68,0-1.37,0-2.05c0-0.48,0-0.96,0-1.44  c0-0.34,0.06-0.73-0.05-1.06c-0.03-0.06-0.06-0.12-0.1-0.17c-0.04-0.06-0.08-0.11-0.13-0.16l-5-4.15V8.38  c0.06-2.15-1.64-3.94-3.79-4h-4.78L21,1.75c-0.33-0.28-0.82-0.28-1.15,0l-3.34,2.63h-5.39c-2.15,0.07-3.84,1.85-3.78,4  c0,0,0,3.3,0,3.3c-0.64,0.51-1.27,1.01-1.91,1.52c-0.5,0.4-1,0.79-1.49,1.19c-0.42,0.33-0.86,0.63-1.28,0.96  c-0.9,0.71-0.63,1.57-0.63,2.45c0,0.87,0,1.74,0,2.61c0.01,2.38-0.01,4.76,0,7.14c0.01,2.27-0.01,4.54,0,6.82  c0,1.01,0.03,2.02,0.04,3.02c0,0.05,0,0.08,0,0.12c0.01,0.08,0.02,0.16,0.05,0.23c0,0.03,0,0.06,0,0.09  c0.09,0.21,0.24,0.38,0.44,0.49c0.13,0.06,0.27,0.1,0.41,0.1h0.12h33.97c0.41-0.02,0.77-0.29,0.9-0.68  C37.96,37.63,38,37.38,38,37.37z M32.33,21.37L32.33,21.37l3.76-3v17.09L25.3,27L32.33,21.37z M32.71,18.57V14l2.79,2.32  L32.71,18.57z M20.39,3.8l0.7,0.58h-1.43L20.39,3.8z M11.12,6.38h17.81C30,6.41,30.85,7.3,30.82,8.37c0,0,0,0.01,0,0.01V12l0,0v8.11  l-7.11,5.65L21,23.63c-0.86-0.7-2.09-0.7-2.95,0l-2.39,2l-6.43-5.37V8.38C9.23,7.32,10.06,6.44,11.12,6.38z M3.9,18.38l10.26,8.56  L4,35.41L3.9,18.38z M7.34,18.7l-2.76-2.3l2.76-2.2V18.7z M5.77,36.44l10.5-8.73l0,0l3-2.47c0.19-0.15,0.47-0.15,0.66,0l3.26,2.56  l11.06,8.61L5.77,36.44z"/><path d="M13.42,13.39H20c0.55,0,1-0.45,1-1s-0.45-1-1-1h-6.58c-0.55,0-1,0.45-1,1S12.87,13.39,13.42,13.39z"/><path d="M13.42,18.75H27.5c0.55,0,1-0.45,1-1s-0.45-1-1-1H13.42c-0.55,0-1,0.45-1,1S12.87,18.75,13.42,18.75z"/></svg>