<svg version="1.1" id="Layer_1" xmlns="http://www.w3.org/2000/svg" xmlns:xlink="http://www.w3.org/1999/xlink" x="0px" y="0px"
	 width="100%" viewBox="0 0 3153 3153" enable-background="new 0 0 3153 3153" xml:space="preserve">
<path fill="#FFFFFF" opacity="1.000000" stroke="none" 
	d="
M3156.000000,1036.000000 
	C3156.000000,1743.333130 3156.000000,2449.666260 3156.000000,3155.999512 
	C2104.667236,3155.999512 1053.334351,3155.999512 2.001179,3155.999756 
	C2.000786,2104.667480 2.000786,1053.334961 2.000393,2.001884 
	C1053.332153,2.001256 2104.664307,2.001256 3155.998291,2.000628 
	C3156.000000,346.333344 3156.000000,690.666687 3156.000000,1036.000000 
M2476.585205,246.736145 
	C2470.609131,246.483856 2464.632812,246.014099 2458.656738,246.011581 
	C2352.688965,245.966934 2246.721436,245.979095 2140.753662,245.979019 
	C2136.870117,245.979019 2132.986816,245.979034 2128.754395,245.979034 
	C2128.469727,242.034943 2128.123291,239.436920 2128.119141,236.838333 
	C2128.074219,209.513412 2127.918457,182.186951 2128.156250,154.864059 
	C2128.258545,143.124969 2123.855469,133.468796 2116.136963,125.132507 
	C2105.721436,113.883064 2092.446289,110.067917 2077.423828,110.071434 
	C1753.855713,110.147110 1430.287720,110.126732 1106.719604,110.125549 
	C1104.720215,110.125542 1102.719849,110.094093 1100.721558,110.144592 
	C1074.197021,110.814880 1054.259399,134.224655 1055.440918,156.339142 
	C1056.825806,182.257095 1055.760620,208.305939 1055.758301,234.298019 
	C1055.757935,237.841995 1055.758301,241.385971 1055.758301,245.978592 
	C1050.452271,245.978592 1046.535767,245.978592 1042.619385,245.978577 
	C929.320557,245.978439 816.021790,245.958878 702.723022,246.044388 
	C697.848267,246.048080 692.974243,247.021133 686.340881,247.704926 
	C644.037292,251.433746 609.075012,269.455231 582.353455,302.439697 
	C559.234070,330.977661 549.402588,363.985199 549.410522,400.768585 
	C549.588501,1223.382324 549.546692,2045.996094 549.551880,2868.609863 
	C549.551941,2875.275146 549.541443,2881.942139 549.680298,2888.605469 
	C550.176514,2912.417725 556.374146,2934.817627 568.313538,2955.271973 
	C597.461060,3005.207764 641.594910,3031.265137 699.117310,3031.332031 
	C1056.093872,3031.746338 1413.071167,3031.540771 1770.048218,3031.540771 
	C2000.366821,3031.540771 2230.685303,3031.572021 2461.003906,3031.435303 
	C2470.946533,3031.429443 2481.039062,3030.704590 2490.806152,3028.916992 
	C2565.307129,3015.283203 2612.922852,2950.099121 2612.888428,2879.631836 
	C2612.484375,2052.685303 2612.630859,1225.738281 2612.585938,398.791443 
	C2612.585693,391.136261 2612.572266,383.396362 2611.528564,375.839203 
	C2601.993652,306.811005 2547.659180,254.844833 2476.585205,246.736145 
z"/>
<path fill="#626F7E" opacity="1.000000" stroke="none" 
	d="
M2477.858154,247.708755 
	C2547.659180,254.844833 2601.993652,306.811005 2611.528564,375.839203 
	C2612.572266,383.396362 2612.585693,391.136261 2612.585938,398.791443 
	C2612.630859,1225.738281 2612.484375,2052.685303 2612.888428,2879.631836 
	C2612.922852,2950.099121 2565.307129,3015.283203 2490.806152,3028.916992 
	C2481.039062,3030.704590 2470.946533,3031.429443 2461.003906,3031.435303 
	C2230.685303,3031.572021 2000.366821,3031.540771 1770.048218,3031.540771 
	C1413.071167,3031.540771 1056.093872,3031.746338 699.117310,3031.332031 
	C641.594910,3031.265137 597.461060,3005.207764 568.313538,2955.271973 
	C556.374146,2934.817627 550.176514,2912.417725 549.680298,2888.605469 
	C549.541443,2881.942139 549.551941,2875.275146 549.551880,2868.609863 
	C549.546692,2045.996094 549.588501,1223.382324 549.410522,400.768585 
	C549.402588,363.985199 559.234070,330.977661 582.353455,302.439697 
	C609.075012,269.455231 644.037292,251.433746 688.120239,247.822693 
	C811.021667,247.940445 932.143738,247.940445 1053.877808,247.940445 
	C1054.080078,252.455505 1054.351318,255.705917 1054.352661,258.956421 
	C1054.377563,317.912598 1054.377197,376.868805 1054.350220,435.824982 
	C1054.348633,439.148285 1054.068481,442.471436 1052.988281,445.803406 
	C934.227234,445.812103 816.395996,445.812103 698.587036,445.812103 
	C698.587036,1233.326782 698.587036,2019.356323 698.587036,2805.410645 
	C1287.401855,2805.410645 1875.468628,2805.410645 2463.596680,2805.410645 
	C2463.596680,2018.665161 2463.596680,1232.631958 2463.596680,445.811615 
	C2458.943604,445.811615 2455.003174,445.811615 2451.062500,445.811584 
	C2372.738770,445.811066 2294.414795,445.826630 2216.091064,445.801636 
	C2186.762939,445.792267 2157.434570,445.688416 2128.181641,444.715881 
	C2128.256836,378.922791 2128.256836,314.041412 2128.256836,247.894867 
	C2133.231201,247.894867 2137.122314,247.894836 2141.013184,247.894852 
	C2246.976807,247.894989 2352.940186,247.898331 2458.903809,247.887314 
	C2465.221924,247.886658 2471.540039,247.770935 2477.858154,247.708755 
z"/>
<path fill="#ABD3C8" opacity="1.000000" stroke="none" 
	d="
M1053.917969,445.794678 
	C1054.068481,442.471436 1054.348633,439.148285 1054.350220,435.824982 
	C1054.377197,376.868805 1054.377563,317.912598 1054.352661,258.956421 
	C1054.351318,255.705917 1054.080078,252.455505 1053.877808,247.940445 
	C932.143738,247.940445 811.021667,247.940445 688.999756,247.741516 
	C692.974243,247.021133 697.848267,246.048080 702.723022,246.044388 
	C816.021790,245.958878 929.320557,245.978439 1042.619385,245.978577 
	C1046.535767,245.978592 1050.452271,245.978592 1055.758301,245.978592 
	C1055.758301,241.385971 1055.757935,237.841995 1055.758301,234.298019 
	C1055.760620,208.305939 1056.825806,182.257095 1055.440918,156.339142 
	C1054.259399,134.224655 1074.197021,110.814880 1100.721558,110.144592 
	C1102.719849,110.094093 1104.720215,110.125542 1106.719604,110.125549 
	C1430.287720,110.126732 1753.855713,110.147110 2077.423828,110.071434 
	C2092.446289,110.067917 2105.721436,113.883064 2116.136963,125.132507 
	C2123.855469,133.468796 2128.258545,143.124969 2128.156250,154.864059 
	C2127.918457,182.186951 2128.074219,209.513412 2128.119141,236.838333 
	C2128.123291,239.436920 2128.469727,242.034943 2128.754395,245.979034 
	C2132.986816,245.979034 2136.870117,245.979019 2140.753662,245.979019 
	C2246.721436,245.979095 2352.688965,245.966934 2458.656738,246.011581 
	C2464.632812,246.014099 2470.609131,246.483856 2477.221680,247.222443 
	C2471.540039,247.770935 2465.221924,247.886658 2458.903809,247.887314 
	C2352.940186,247.898331 2246.976807,247.894989 2141.013184,247.894852 
	C2137.122314,247.894836 2133.231201,247.894867 2128.256836,247.894867 
	C2128.256836,314.041412 2128.256836,378.922791 2128.198730,445.683289 
	C2128.128418,448.895508 2128.105469,450.228607 2128.105225,451.561707 
	C2128.096436,496.890106 2128.088623,542.218506 2128.082031,587.546936 
	C2128.079834,602.160706 2121.921875,613.682495 2110.769775,622.912781 
	C2101.781738,630.351929 2091.510986,632.286621 2080.106445,632.282043 
	C1755.808350,632.151489 1431.510376,632.176575 1107.212280,632.175110 
	C1103.546021,632.175049 1099.867798,632.339417 1096.217407,632.094604 
	C1093.261963,631.896362 1090.294434,631.385803 1087.410767,630.689026 
	C1069.244507,626.299866 1055.326538,607.088928 1055.579102,588.459656 
	C1056.166504,545.139038 1055.813110,501.804840 1055.679688,458.476624 
	C1055.666748,454.247528 1054.531982,450.021912 1053.917969,445.794678 
M1146.130737,447.572998 
	C1146.277222,478.199402 1146.422363,508.825806 1146.588379,539.452087 
	C1146.589966,539.738220 1146.838745,540.046265 1147.028931,540.301575 
	C1147.225708,540.565857 1147.491943,540.778442 1148.630127,541.913757 
	C1151.983154,541.913757 1156.259888,541.913696 1160.536743,541.913696 
	C1347.059570,541.914001 1533.582397,541.914368 1720.105225,541.914551 
	C1822.026611,541.914673 1923.948120,541.920166 2025.869507,541.906738 
	C2037.642822,541.905212 2037.731812,541.829468 2037.751709,530.401550 
	C2037.794434,505.753937 2037.841675,481.105774 2037.687744,456.459076 
	C2037.665405,452.896301 2036.541626,449.340424 2036.143433,443.943176 
	C2036.211792,380.644104 2036.290405,317.345032 2036.297607,254.045990 
	C2036.297852,252.198883 2035.544678,250.351685 2035.138184,248.483780 
	C1738.864990,248.483780 1443.156128,248.483780 1146.108398,248.483780 
	C1146.108398,314.590363 1146.108398,380.116791 1146.130737,447.572998 
M1573.000000,245.980698 
	C1727.512329,245.980698 1882.024658,245.980698 2035.877319,245.980698 
	C2036.837280,244.162262 2037.392212,243.595474 2037.402710,243.018829 
	C2037.565918,234.031448 2037.725464,225.042984 2037.751831,216.054382 
	C2037.793091,201.940659 2037.750488,201.933151 2023.455933,201.932968 
	C1882.161255,201.931076 1740.866577,201.931885 1599.571899,201.931808 
	C1452.945435,201.931717 1306.318848,201.927719 1159.692383,201.950455 
	C1155.482788,201.951111 1151.273193,202.235077 1146.748047,202.398346 
	C1146.748047,217.240616 1146.748047,231.039047 1146.748047,245.980652 
	C1288.605469,245.980652 1429.802734,245.980652 1573.000000,245.980698 
z"/>
<path fill="#FFFFFF" opacity="1.000000" stroke="none" 
	d="
M1052.988281,445.803406 
	C1054.531982,450.021912 1055.666748,454.247528 1055.679688,458.476624 
	C1055.813110,501.804840 1056.166504,545.139038 1055.579102,588.459656 
	C1055.326538,607.088928 1069.244507,626.299866 1087.410767,630.689026 
	C1090.294434,631.385803 1093.261963,631.896362 1096.217407,632.094604 
	C1099.867798,632.339417 1103.546021,632.175049 1107.212280,632.175110 
	C1431.510376,632.176575 1755.808350,632.151489 2080.106445,632.282043 
	C2091.510986,632.286621 2101.781738,630.351929 2110.769775,622.912781 
	C2121.921875,613.682495 2128.079834,602.160706 2128.082031,587.546936 
	C2128.088623,542.218506 2128.096436,496.890106 2128.105225,451.561707 
	C2128.105469,450.228607 2128.128418,448.895508 2128.123535,446.595032 
	C2157.434570,445.688416 2186.762939,445.792267 2216.091064,445.801636 
	C2294.414795,445.826630 2372.738770,445.811066 2451.062500,445.811584 
	C2455.003174,445.811615 2458.943604,445.811615 2463.596680,445.811615 
	C2463.596680,1232.631958 2463.596680,2018.665161 2463.596680,2805.410645 
	C1875.468628,2805.410645 1287.401855,2805.410645 698.587036,2805.410645 
	C698.587036,2019.356323 698.587036,1233.326782 698.587036,445.812103 
	C816.395996,445.812103 934.227234,445.812103 1052.988281,445.803406 
M1167.000000,780.279541 
	C1060.714966,780.447754 954.429993,780.615540 848.145020,780.809265 
	C847.887451,780.809692 847.618042,781.177856 847.376770,781.398987 
	C847.134033,781.621582 846.919556,781.875122 846.660400,782.149353 
	C844.897461,799.537781 845.677551,930.468140 847.658386,937.769409 
	C848.844971,937.967163 850.134094,938.370361 851.423279,938.370483 
	C1337.611816,938.400574 1823.800293,938.403442 2309.988770,938.382507 
	C2311.298828,938.382446 2312.613281,938.050293 2313.915039,937.814453 
	C2314.200439,937.762817 2314.459473,937.481506 2314.695312,937.266846 
	C2314.940186,937.043823 2315.142090,936.773376 2315.362549,936.523621 
	C2317.160156,919.952393 2316.399658,788.228821 2314.220703,780.280029 
	C1932.644165,780.280029 1550.822144,780.280029 1167.000000,780.279541 
M1403.000000,1137.951538 
	C1218.072266,1138.124634 1033.144653,1138.297363 848.216980,1138.493530 
	C847.952271,1138.493774 847.676819,1138.825195 847.426514,1139.026733 
	C847.167297,1139.235352 846.932861,1139.474854 846.735229,1139.656982 
	C845.004944,1155.394165 845.708496,1288.095337 847.585938,1295.280640 
	C848.462891,1295.504639 849.406067,1295.956787 850.349304,1295.956909 
	C1336.873901,1296.012451 1823.398438,1296.037964 2309.923096,1296.042480 
	C2311.238770,1296.042603 2312.558350,1295.758789 2313.866455,1295.546753 
	C2314.152588,1295.500366 2314.408691,1295.209106 2314.656250,1295.003052 
	C2314.911621,1294.790283 2315.138428,1294.543579 2316.042725,1293.667847 
	C2316.028564,1242.487671 2316.051758,1190.682739 2316.026611,1137.951538 
	C2011.352661,1137.951538 1708.176392,1137.951538 1403.000000,1137.951538 
M2223.000000,1653.743896 
	C2233.332275,1653.744019 2243.664551,1653.744141 2253.996826,1653.744141 
	C2264.329346,1653.744141 2274.663330,1653.847778 2284.994141,1653.714722 
	C2295.152344,1653.583984 2305.373779,1654.319336 2315.268066,1653.215454 
	C2317.311035,1633.306519 2316.446777,1503.469604 2314.366943,1496.503052 
	C2299.870117,1494.679810 854.153625,1495.401245 846.704346,1497.323975 
	C846.704346,1549.029297 846.704346,1600.821167 846.704346,1653.743286 
	C1305.250854,1653.743286 1763.125366,1653.743286 2223.000000,1653.743896 
M2261.000000,1852.279297 
	C1790.031738,1852.451538 1319.063477,1852.623657 848.095276,1852.821899 
	C847.841919,1852.822021 847.585632,1853.214844 847.336426,1853.430908 
	C847.088257,1853.646118 846.846741,1853.869141 846.661804,1854.035278 
	C844.763062,1873.290527 845.628845,2002.574951 847.687378,2009.552490 
	C1336.821411,2009.552490 1825.950073,2009.552490 2315.381104,2009.552490 
	C2315.381104,1956.992188 2315.381104,1905.193848 2315.381104,1852.279785 
	C2297.495605,1852.279785 2280.247803,1852.279785 2261.000000,1852.279297 
M849.705322,2210.072754 
	C844.259888,2211.360352 846.125671,2215.833496 846.117554,2219.088623 
	C846.001038,2265.754639 846.026428,2312.421143 846.062622,2359.087402 
	C846.064636,2361.661133 846.459534,2364.234375 846.639160,2366.414795 
	C847.848877,2367.055908 848.417542,2367.621338 848.986328,2367.621582 
	C1334.640503,2367.766113 1820.294800,2367.873779 2305.948975,2367.959229 
	C2308.598877,2367.959473 2311.249756,2367.657715 2313.896484,2367.449463 
	C2314.169678,2367.427979 2314.432129,2367.099609 2314.673096,2366.883789 
	C2314.920166,2366.661621 2315.134277,2366.402832 2315.397705,2366.123047 
	C2317.248535,2348.338379 2316.423584,2217.844727 2314.182617,2209.971191 
	C1826.797852,2209.971191 1339.186768,2209.971191 849.705322,2210.072754 
z"/>
<path fill="#616E7E" opacity="1.000000" stroke="none" 
	d="
M1146.108398,445.643219 
	C1146.108398,380.116791 1146.108398,314.590363 1146.108398,248.483780 
	C1443.156128,248.483780 1738.864990,248.483780 2035.138184,248.483780 
	C2035.544678,250.351685 2036.297852,252.198883 2036.297607,254.045990 
	C2036.290405,317.345032 2036.211792,380.644104 2035.105225,444.871826 
	C1744.412354,445.802032 1454.757935,445.804565 1165.103394,445.798309 
	C1158.771729,445.798157 1152.440063,445.697174 1146.108398,445.643219 
z"/>
<path fill="#FEFEFF" opacity="1.000000" stroke="none" 
	d="
M1146.119629,446.608093 
	C1152.440063,445.697174 1158.771729,445.798157 1165.103394,445.798309 
	C1454.757935,445.804565 1744.412354,445.802032 2034.997314,445.790924 
	C2036.541626,449.340424 2037.665405,452.896301 2037.687744,456.459076 
	C2037.841675,481.105774 2037.794434,505.753937 2037.751709,530.401550 
	C2037.731812,541.829468 2037.642822,541.905212 2025.869507,541.906738 
	C1923.948120,541.920166 1822.026611,541.914673 1720.105225,541.914551 
	C1533.582397,541.914368 1347.059570,541.914001 1160.536743,541.913696 
	C1156.259888,541.913696 1151.983154,541.913757 1148.630127,541.913757 
	C1147.491943,540.778442 1147.225708,540.565857 1147.028931,540.301575 
	C1146.838745,540.046265 1146.589966,539.738220 1146.588379,539.452087 
	C1146.422363,508.825806 1146.277222,478.199402 1146.119629,446.608093 
z"/>
<path fill="#FEFFFF" opacity="1.000000" stroke="none" 
	d="
M1572.000000,245.980682 
	C1429.802734,245.980652 1288.605469,245.980652 1146.748047,245.980652 
	C1146.748047,231.039047 1146.748047,217.240616 1146.748047,202.398346 
	C1151.273193,202.235077 1155.482788,201.951111 1159.692383,201.950455 
	C1306.318848,201.927719 1452.945435,201.931717 1599.571899,201.931808 
	C1740.866577,201.931885 1882.161255,201.931076 2023.455933,201.932968 
	C2037.750488,201.933151 2037.793091,201.940659 2037.751831,216.054382 
	C2037.725464,225.042984 2037.565918,234.031448 2037.402710,243.018829 
	C2037.392212,243.595474 2036.837280,244.162262 2035.877319,245.980698 
	C1882.024658,245.980698 1727.512329,245.980698 1572.000000,245.980682 
z"/>
<path fill="#83C0AB" opacity="1.000000" stroke="none" 
	d="
M1168.000000,780.279785 
	C1550.822144,780.280029 1932.644165,780.280029 2314.220703,780.280029 
	C2316.399658,788.228821 2317.160156,919.952393 2315.362549,936.523682 
	C2315.142090,936.773376 2314.940186,937.043823 2314.695312,937.266846 
	C2314.459473,937.481506 2314.200439,937.762817 2313.915039,937.814453 
	C2312.613281,938.050293 2311.298828,938.382446 2309.988770,938.382507 
	C1823.800293,938.403442 1337.611816,938.400574 851.423279,938.370483 
	C850.134094,938.370361 848.844971,937.967163 847.658386,937.769409 
	C845.677551,930.468140 844.897461,799.537781 846.660400,782.149353 
	C846.919556,781.875122 847.134033,781.621582 847.376770,781.398987 
	C847.618042,781.177856 847.887451,780.809692 848.145020,780.809265 
	C954.429993,780.615540 1060.714966,780.447754 1168.000000,780.279785 
z"/>
<path fill="#83C0AB" opacity="1.000000" stroke="none" 
	d="
M1404.000000,1137.951538 
	C1708.176392,1137.951538 2011.352661,1137.951538 2316.026611,1137.951538 
	C2316.051758,1190.682739 2316.028564,1242.487671 2316.042725,1293.667847 
	C2315.138428,1294.543579 2314.911621,1294.790283 2314.656250,1295.003052 
	C2314.408691,1295.209106 2314.152588,1295.500366 2313.866455,1295.546753 
	C2312.558350,1295.758789 2311.238770,1296.042603 2309.923096,1296.042480 
	C1823.398438,1296.037964 1336.873901,1296.012451 850.349304,1295.956909 
	C849.406067,1295.956787 848.462891,1295.504639 847.585938,1295.280640 
	C845.708496,1288.095337 845.004944,1155.394165 846.735229,1139.656982 
	C846.932861,1139.474854 847.167297,1139.235352 847.426514,1139.026733 
	C847.676819,1138.825195 847.952271,1138.493774 848.216980,1138.493530 
	C1033.144653,1138.297363 1218.072266,1138.124634 1404.000000,1137.951538 
z"/>
<path fill="#83C0AB" opacity="1.000000" stroke="none" 
	d="
M2222.000000,1653.743652 
	C1763.125366,1653.743286 1305.250854,1653.743286 846.704346,1653.743286 
	C846.704346,1600.821167 846.704346,1549.029297 846.704346,1497.323975 
	C854.153625,1495.401245 2299.870117,1494.679810 2314.366943,1496.503052 
	C2316.446777,1503.469604 2317.311035,1633.306519 2315.268066,1653.215454 
	C2305.373779,1654.319336 2295.152344,1653.583984 2284.994141,1653.714722 
	C2274.663330,1653.847778 2264.329346,1653.744141 2253.996826,1653.744141 
	C2243.664551,1653.744141 2233.332275,1653.744019 2222.000000,1653.743652 
z"/>
<path fill="#83C0AB" opacity="1.000000" stroke="none" 
	d="
M2262.000000,1852.279541 
	C2280.247803,1852.279785 2297.495605,1852.279785 2315.381104,1852.279785 
	C2315.381104,1905.193848 2315.381104,1956.992188 2315.381104,2009.552490 
	C1825.950073,2009.552490 1336.821411,2009.552490 847.687378,2009.552490 
	C845.628845,2002.574951 844.763062,1873.290527 846.661804,1854.035278 
	C846.846741,1853.869141 847.088257,1853.646118 847.336426,1853.430908 
	C847.585632,1853.214844 847.841919,1852.822021 848.095276,1852.821899 
	C1319.063477,1852.623657 1790.031738,1852.451538 2262.000000,1852.279541 
z"/>
<path fill="#83C0AB" opacity="1.000000" stroke="none" 
	d="
M850.640503,2210.021973 
	C1339.186768,2209.971191 1826.797852,2209.971191 2314.182617,2209.971191 
	C2316.423584,2217.844727 2317.248535,2348.338379 2315.397705,2366.123047 
	C2315.134277,2366.402832 2314.920166,2366.661621 2314.673096,2366.883789 
	C2314.432129,2367.099609 2314.169678,2367.427979 2313.896484,2367.449463 
	C2311.249756,2367.657715 2308.598877,2367.959473 2305.948975,2367.959229 
	C1820.294800,2367.873779 1334.640503,2367.766113 848.986328,2367.621582 
	C848.417542,2367.621338 847.848877,2367.055908 846.639160,2366.414795 
	C846.459534,2364.234375 846.064636,2361.661133 846.062622,2359.087402 
	C846.026428,2312.421143 846.001038,2265.754639 846.117554,2219.088623 
	C846.125671,2215.833496 844.259888,2211.360352 850.640503,2210.021973 
z"/>
</svg>